PathFileType        4      (X/Y/Z)      C:\Users\pc\Desktop\IMUTRC\Sujet_04\Sujet_04_velo_60.trc         
DataRate	CameraRate	NumFrames	NumMarkers	Units	OrigDataRate	OrigDataStartFrame	OrigNumFrames
60.0	60.0	4	64	mm	60.0	629	1257
Frame#	Time	pHipOrigin			pRightASI			pLeftASI			pRightCSI			pLeftCSI			pRightIschialTub			pLeftIschialTub			pSacrum			pL5SpinalProcess			pL3SpinalProcess			pT12SpinalProcess			pIJ			pT4SpinalProcess			pT8SpinalProcess			pPX			pC7SpinalProcess			pTopOfHead			pRightAuricularis			pLeftAuricularis			pBackOfHead			pRightAcromion			pLeftAcromion			pRightArmLatEpicondyle			pRightArmMedEpicondyle			pLeftArmLatEpicondyle			pLeftArmMedEpicondyle			pRightUlnarStyloid			pRightRadialStyloid			pRightOlecranon			pLeftUlnarStyloid			pLeftRadialStyloid			pLeftOlecranon			pRightTopOfHand			pRightPinky			pRightBallHand			pLeftTopOfHand			pLeftPinky			pLeftBallHand			pRightGreaterTrochanter			pRightKneeLatEpicondyle			pRightKneeMedEpicondyle			pRightPatella			pLeftGreaterTrochanter			pLeftKneeLatEpicondyle			pLeftKneeMedEpicondyle			pLeftPatella			pRightTibialTub			pRightLatMalleolus			pRightMedMalleolus			pLeftTibialTub			pLeftLatMalleolus			pLeftMedMalleolus			pRightHeelFoot			pRightFirstMetatarsal			pRightFifthMetatarsal			pRightPivotFoot			pRightHeelCenter			pRightToe			pLeftHeelFoot			pLeftFirstMetatarsal			pLeftFifthMetatarsal			pLeftPivotFoot			pLeftHeelCenter			pLeftToe			
		X1	Y1	Z1	X2	Y2	Z2	X3	Y3	Z3	X4	Y4	Z4	X5	Y5	Z5	X6	Y6	Z6	X7	Y7	Z7	X8	Y8	Z8	X9	Y9	Z9	X10	Y10	Z10	X11	Y11	Z11	X12	Y12	Z12	X13	Y13	Z13	X14	Y14	Z14	X15	Y15	Z15	X16	Y16	Z16	X17	Y17	Z17	X18	Y18	Z18	X19	Y19	Z19	X20	Y20	Z20	X21	Y21	Z21	X22	Y22	Z22	X23	Y23	Z23	X24	Y24	Z24	X25	Y25	Z25	X26	Y26	Z26	X27	Y27	Z27	X28	Y28	Z28	X29	Y29	Z29	X30	Y30	Z30	X31	Y31	Z31	X32	Y32	Z32	X33	Y33	Z33	X34	Y34	Z34	X35	Y35	Z35	X36	Y36	Z36	X37	Y37	Z37	X38	Y38	Z38	X39	Y39	Z39	X40	Y40	Z40	X41	Y41	Z41	X42	Y42	Z42	X43	Y43	Z43	X44	Y44	Z44	X45	Y45	Z45	X46	Y46	Z46	X47	Y47	Z47	X48	Y48	Z48	X49	Y49	Z49	X50	Y50	Z50	X51	Y51	Z51	X52	Y52	Z52	X53	Y53	Z53	X54	Y54	Z54	X55	Y55	Z55	X56	Y56	Z56	X57	Y57	Z57	X58	Y58	Z58	X59	Y59	Z59	X60	Y60	Z60	X61	Y61	Z61	X62	Y62	Z62	X63	Y63	Z63	X64	Y64	Z64	
629	10.467	4.919999564491574E-14	1250.01928	5.863427156544783E-14	70.86375803853258	1333.93195	161.9271381330817	100.42621043434329	1356.69277	-129.6921538265611	35.89110570559575	1414.07968	137.73126729424794	60.089710505454846	1432.73328	-100.90953870485993	-73.66917817526763	1193.431	48.78414729398134	-61.52617293985816	1202.72927	-70.57292673870519	-68.05016711754868	1282.93404	-4.3339858014290265	-11.05577555598154	1384.53055	9.276897191403009	56.17378144178514	1485.38548	25.76730302959093	122.54743639155782	1574.20399	41.85888505123862	387.5489939956665	1587.4954	77.15024767032148	278.3086301550772	1700.38675	73.86901814349966	200.69827887267394	1650.70086	58.940357130452995	284.46599546475716	1515.16279	56.71326661051076	328.31462372515665	1729.82178	83.5887504514224	576.8049496506542	1777.45406	119.7030485402912	482.37017857922854	1732.61697	172.58208334324425	498.37410464745017	1749.33105	37.32602044285744	469.06432307253044	1790.34615	108.5358633298776	299.8946521621264	1673.91803	266.34743612028427	351.5006617998259	1710.99705	-106.916172993929	317.3329303615991	1354.1828	293.3417587406759	280.39347372868673	1343.68659	238.4033079159968	396.1677733233978	1391.66113	-101.4291621684902	356.6025684123072	1385.32918	-47.67726322656057	412.7116175238772	1124.92038	206.53308995727397	458.94151999863664	1143.11762	227.0169164939159	277.0409125583134	1341.23367	257.7480011830043	444.39833750552486	1155.15404	11.427097950754472	494.665991169745	1172.78083	18.618815227880447	352.5768565820656	1380.8797	-80.34107606420022	603.466074413905	1020.18641	309.7101436237664	514.7305617447728	1027.08881	253.47938272728842	468.0654885062022	1089.72383	216.68021347497162	656.939588828594	1043.46063	26.17542907402276	552.4258642236014	1054.86956	31.810777332282953	496.1740483515282	1120.29976	34.70409544828294	7.9125699389656035	1243.05984	179.3778668023218	402.0906178736181	1070.04343	242.77436450348165	417.0704690292264	1057.83588	160.87647557377952	426.3908273656582	1107.63585	195.5016587230858	22.009331620007572	1229.71139	-175.66678653123847	235.85550431272483	850.93495	-163.80060840556345	242.5675307341269	849.8511	-79.92394412375678	278.71076966094176	876.20573	-121.86850288234872	447.354420760473	1017.106	200.25107234260526	231.83900816020972	658.86564	176.4560520303994	241.9302629591702	663.25807	111.0960797719945	275.5699095747386	798.28275	-126.23285025522082	29.31253944884908	464.28636	-182.31618076560662	32.01207890506522	457.78327	-116.44452026477188	177.72443781835582	581.68423	135.4824310314012	353.45657304754025	547.4004	116.48036231354452	342.5884881643805	546.77291	200.43859852507907	371.5289206631973	542.32343	160.2933279661062	219.56467690689652	575.58046	140.88407941451064	459.65917942770704	523.95505	171.60739950014963	-45.63765719068708	397.54412	-149.43549352909406	110.81545482460193	327.55035	-94.32559947675239	115.68569589755032	321.84588	-178.68710251795457	134.96807956525842	314.82939	-133.43208761043076	-6.083356689482713	381.97094	-146.13690458858883	216.92767095492965	276.78061	-126.09958854956966	
630	10.483	4.919999564491574E-14	1250.01928	5.863427156544783E-14	71.02449168743718	1333.70377	161.94120050520803	100.01734512601868	1357.14912	-129.6469429324246	35.86298096134314	1413.8515	138.0527345920571	59.5793848144885	1433.07554	-100.63025852342969	-73.46474169088313	1193.20282	48.76153863297503	-61.60654680847072	1202.78632	-70.57995854105252	-68.1079246647105	1282.81995	-4.136587547267936	-11.244633949138734	1384.53055	9.584302117085866	55.94122787359244	1485.38548	26.1113725605303	122.2782182181086	1574.26104	42.159259407142486	387.3008623362464	1587.4954	77.20952093658431	278.0534743537543	1700.44379	74.00865885049893	200.4360848411276	1650.75791	59.16036404562041	284.2108396634343	1515.21983	56.852907317510045	328.0664920657366	1729.87883	83.64802371768519	576.5201469581016	1777.56815	119.71861897107405	482.12204691980855	1732.73106	172.6413566095071	498.1696681630657	1749.38809	37.34862910386374	468.77952680785387	1790.46024	108.55144142110498	299.71986380154	1674.2603	266.49410096918643	351.0480936560213	1711.05409	-106.83429106665982	317.61221054302933	1354.58211	293.85208443164225	280.4979578890861	1343.91477	239.06030488374142	396.34407863565366	1391.94636	-101.13031119213178	356.9325755711203	1385.55736	-47.28397600946329	413.0572027739176	1125.26265	207.2111734390478	459.24340241319703	1143.51693	227.73167100882233	277.1961236960956	1341.51889	258.28795967687984	444.9187111161517	1155.49631	11.958516583626135	495.1059985722037	1173.23719	19.143195630528652	352.8265039605867	1381.10787	-79.95481941688192	603.7679568284655	1020.64277	310.4248981386728	515.0761393343687	1027.48813	254.15747263693834	468.4110737562427	1090.12315	217.35829695674545	657.4966270444773	1043.97403	26.75054288192996	552.9899406697082	1055.32591	32.30552493202197	496.69442196215505	1120.75612	35.235514081154605	8.116998762905695	1241.69076	179.35526456919158	399.1195575742845	1061.08742	241.09725651908593	413.90904227807897	1049.39327	159.06123617360942	424.1149443584267	1098.67984	194.2092916669074	22.578924149360688	1230.33888	-175.69794271369312	245.70087193990008	856.92464	-163.87053949642691	252.33253092056572	855.95488	-80.00089935652315	287.8624757151159	883.22222	-121.87764498784837	446.0288631862222	1009.40497	199.20381193552095	241.2976636353324	644.60448	180.80626106361063	251.03078653122714	648.42647	115.37446888591754	282.8857400241399	803.30268	-127.0099790142506	22.182543614847262	480.37295	-182.737523187298	25.29094071894358	473.29941	-116.91106715272372	189.20078906118493	565.5406	140.37358800062782	365.6913739803113	535.93443	121.03297226295416	355.1080853618282	535.42103	204.97563038326135	384.04852428852104	531.59904	164.83036748473296	231.21582417075655	560.57772	145.628565106959	472.6017043056055	515.68358	175.93848681529084	-54.8415982809006	416.19772	-149.75484929118258	99.26228742832342	340.21426	-96.02471387765864	103.40220355558245	334.79502	-180.36913719685302	122.66197732971592	326.80876	-135.31854468539316	-15.865444258373763	399.14137	-146.79026787363568	203.22419122584824	285.73662	-128.67517412855074	
631	10.5	4.919999564491574E-14	1250.01928	5.863427156544783E-14	71.18521124802122	1333.53264	161.955261644766	99.52812003740205	1357.54844	-129.60876260806705	35.84188801943783	1413.68037	138.2938280212537	59.03239451826562	1433.36077	-100.39467351703493	-73.26734343672202	1192.97464	48.819296180136845	-61.65024198350623	1202.78632	-70.543293935796	-68.16568221187231	1282.70586	-3.9391892931068284	-11.506827980685069	1384.47351	9.804309032253277	55.59866763387798	1485.44253	26.3243412454743	121.97935315342966	1574.37513	42.33556348682997	386.9864332686607	1587.60948	77.1010299841636	277.77570223098064	1700.55788	73.9438695009898	200.10758697353947	1650.87199	59.21259908165983	283.8823417958461	1515.33392	56.905142353549465	327.7520629981509	1729.99292	83.53953276526448	576.2494130655514	1777.68224	119.57346341339684	481.81464842200177	1732.90219	172.45250587679433	497.9059660728627	1749.55923	37.12309967757395	468.51582471765096	1790.57433	108.32591199481507	299.4420916787663	1674.60257	266.42931161967726	350.49255707091845	1711.11114	-106.96387619355417	317.71518021689604	1354.98143	294.0635373974853	280.5572247274728	1344.19999	239.30842888271704	396.4174142740428	1392.23158	-101.04291318161634	357.159614288635	1385.84258	-47.10215584652951	413.2561090867353	1125.60491	207.71446732766682	459.4423228143353	1143.8592	228.23496613000972	277.2990997978384	1341.86116	258.49942030316726	445.2120472418321	1155.95266	12.308100965243455	495.43600573101685	1173.69355	19.53648284762599	352.98019937926784	1381.3931	-79.8603908365875	603.9965036046367	1021.09913	311.0522546430638	515.30468611054	1027.88744	254.7848291413293	468.6099800690603	1090.46541	217.86159084536447	657.8196100613875	1044.48743	27.22419753976368	553.312916026174	1055.78227	32.77918601773183	497.02442912096814	1121.21248	35.62880129825189	8.277732411810263	1240.26465	179.36932694131787	395.3151962275188	1050.64825	239.22576763041064	409.87061164401956	1039.52455	157.08828690229242	421.0861188514869	1088.18363	192.729588364549	23.18519413972247	1230.96637	-175.68538840022342	255.9184261818229	863.54182	-164.02937788903074	262.4626948124175	862.62911	-80.08640853861395	297.37934424213466	890.8662	-121.8953269543519	443.70927734351085	1000.33488	197.94811591247512	249.4689470558696	629.60173	184.59845652711905	259.0046652697272	632.91032	119.10889914181986	290.55970114403874	809.12123	-127.71527376567177	16.42580732215312	497.48634	-183.11969584249204	19.82603892114939	489.84236	-117.38918410731316	199.03867580915468	548.94061	144.55453118437495	376.1269767693184	523.15643	124.86130605475793	365.70442179973986	522.70007	208.8180265471915	394.6081896933001	519.33444	168.62906081318317	241.14110126879734	544.89044	149.73617908019312	483.5842897303911	505.41555	179.53124202857603	-62.57083353548523	435.64995	-150.26910580663574	89.03163974021754	354.0761	-97.56763535908726	92.65269674338239	348.99913	-181.99793330925164	111.83914253957118	340.10017	-137.03474523618334	-24.223544076005965	417.28157	-147.52151395437477	190.95324430433737	296.17579	-130.96345828161435	
632	10.517	4.919999564491574E-14	1250.01928	5.863427156544783E-14	71.30224972189029	1333.41855	162.00598862214883	99.08258369594482	1358.00479	-129.60725454941047	35.70375660366346	1413.50923	138.48419447306748	58.41206981622193	1433.64599	-100.24650060947617	-73.02625000752542	1192.68941	48.84038912204214	-61.69394481898616	1202.78632	-70.50662290266338	-68.30381362764666	1282.53473	-3.748822841293041	-11.7690220122314	1384.47351	10.024315947420689	55.26313796394251	1485.49957	26.456950150126268	121.52679267006954	1574.48922	42.41743898622301	386.6056927045886	1587.89471	76.82477358049093	277.3879310971297	1700.78606	73.7479728776092	199.74945507047377	1651.04313	59.140779162371715	283.4875452875239	1515.5621	56.789627259225824	327.3783530038579	1730.22109	83.18291658129982	575.8686725014793	1777.91042	119.29720700972419	481.3605722195406	1733.13037	172.08885146260624	497.56892068382626	1749.73036	36.81017866864474	468.1421147233579	1790.80251	107.96929581085038	299.1346931809595	1674.94483	266.24046088696446	349.7466540340017	1711.28227	-107.23159273622291	317.74330372858026	1355.32369	293.7420841879966	280.541660724566	1344.54226	239.0236338506088	396.3074140303971	1392.57385	-101.1740063671673	357.2033094636705	1386.18485	-47.13882045178602	413.40278036351356	1125.89014	207.8892633486977	459.54528482775754	1144.20147	228.44642552372878	277.3272168816465	1342.20343	258.1779594332342	445.3150233435749	1156.46607	12.519561591530874	495.45861439202315	1174.26399	19.740919332010463	352.95056657635865	1381.67832	-79.98445988023556	604.0276521266469	1021.61253	311.621853600293	515.3865680378092	1028.28675	255.23739728513385	468.7425889737124	1090.80768	218.19712051529999	657.9085161305595	1045.00083	27.596398242831754	553.3651587226578	1056.35272	33.107677457443856	497.0400072121954	1121.72588	35.91359756292843	8.401795027582224	1238.72444	179.33968647796422	390.5971804809051	1038.9541	237.1528749281212	404.96222178514756	1028.40084	154.87726921210472	417.3480690012074	1076.37539	191.02586492712555	23.67441922833912	1231.59386	-175.72356872458096	266.26005712783825	870.55831	-164.21785551241993	272.8113499003357	869.75969	-80.35525360273954	306.9539779767597	898.96654	-122.11041360289262	440.43232783759544	989.89571	196.52767944850345	256.2795175881244	613.91446	187.7452186616444	265.822266371761	616.59556	122.17530149605315	298.431068178543	815.56727	-128.36281739780722	11.95341807371851	515.17018	-183.83490709470112	15.39734484775029	507.06984	-118.14105996477876	207.0914126971662	532.11244	147.85046332904338	384.52930569939167	509.0664	127.86389564586983	374.26044614849434	508.49596	211.9150447185978	403.13458123914535	505.58668	171.60200994094143	249.28122973944818	528.7468	152.95876792602795	492.4025081106919	492.97981	182.40825328481492	-68.76758365851421	455.72966	-151.17566652492238	80.25462546203188	369.13589	-99.06435527167116	83.55421516738758	364.40119	-183.52277796608814	102.50659167628267	354.64655	-138.6610502756616	-31.019525959173336	436.1063	-148.52099519429925	180.27555864399378	308.26926	-132.9504003853992	
